<?xml version="1.0" encoding="UTF-8"?>
<!-- Created with Inkscape (http://www.inkscape.org/) -->
<svg width="400" height="115" version="1.1" viewBox="0 0 105.83333 30.427084" xmlns="http://www.w3.org/2000/svg" >
 
 <g transform="translate(0 -266.57)">
  <g transform="matrix(.5264 -.29065 -.29065 -.5264 -14.661 365.8)" fill="#d40055" stroke-width=".44001">
   <path class="cls-1" d="m138.15 101.54-21.873-21.873-21.873 21.873-6.2994-6.1682 25.066-25.066a4.3746 4.3746 0 0 1 6.2119 0l25.023 25.066z" fill="#d40055"/>
   <rect class="cls-1" x="111.9" y="73.408" width="8.7492" height="47.246" fill="#d40055"/>
  </g>
  <path d="m52.385 90.668z" fill="none" stroke="#000" stroke-width=".026458"/>
  <g transform="matrix(-.5264 -.29065 .29065 -.5264 120.45 365.93)"  stroke-width=".44001">
   <path class="cls-1" d="m138.15 101.54-21.873-21.873-21.873 21.873-6.2994-6.1682 25.066-25.066a4.3746 4.3746 0 0 1 6.2119 0l25.023 25.066z" fill="#d40055"/>
   <rect class="cls-1" x="111.9" y="73.408" width="8.7492" height="47.246" fill="#d40055"/>
  </g>
 </g>
</svg>
