<?xml version="1.0" encoding="UTF-8"?>
<!-- Created with Inkscape (http://www.inkscape.org/) -->
<svg width="522.58" height="473.41" version="1.1" viewBox="0 0 138.26502 125.2573" xmlns="http://www.w3.org/2000/svg" xmlns:cc="http://creativecommons.org/ns#" xmlns:dc="http://purl.org/dc/elements/1.1/" xmlns:rdf="http://www.w3.org/1999/02/22-rdf-syntax-ns#">
 <metadata>
  <rdf:RDF>
   <cc:Work rdf:about="">
    <dc:format>image/svg+xml</dc:format>
    <dc:type rdf:resource="http://purl.org/dc/dcmitype/StillImage"/>
    <dc:title/>
   </cc:Work>
  </rdf:RDF>
 </metadata>
 <g transform="translate(-10.262 -170.97)">
  <path d="m116.64 171.24 0.0121 6.8218h-90.208l-0.03355-0.0145-15.77-6.8068c4.5534 9.5182 4.7927 18.329-0.11482 26.873l15.827-6.6296 0.13934-0.0584h90.184l0.0121 6.6885 15.787-6.7686 15.787-6.7681-15.811-6.6683z" fill="#ff2a2a" stroke="#000" stroke-linecap="round" stroke-linejoin="round" stroke-width=".52917" style="paint-order:markers fill stroke"/>
  <path d="m75 196.11-29.11 4.3282-29.11 4.3282 20.842-3e-3v84.86h-19.913v6.3443h115.05v-6.3443h-19.913v-84.875l20.842-5e-3 -29.346-4.3169z" fill="#ffe680" stroke="#000" stroke-linecap="round" stroke-linejoin="round" stroke-width=".52917" style="paint-order:markers fill stroke"/>
  <path d="m64.354 203.55c-2.4713-0.12511-1.1894 4.4633-3.6336 4.8372-2.4442 0.37399-2.6929-4.3726-5.0032-3.5159-2.3103 0.85672 0.79268 4.5448-1.2828 5.8468-2.0754 1.302-4.3009-2.9365-6.0508-1.2461-1.7499 1.6904 2.6377 3.8403 1.2899 5.8452-1.3478 2.0049-5.1656-0.99264-6.0524 1.2392-0.88684 2.2318 4.0266 2.472 3.6395 4.8332-0.38712 2.3612-5.1369 1.1229-5.0074 3.5102 0.12952 2.3873 4.719 0.67622 5.3595 2.9854 0.6405 2.3091-4.2197 3.0441-3.0962 5.1742 1.1235 2.13 4.5957-1.2366 6.153 0.62122 1.5574 1.8578-2.5734 4.4387-0.65018 5.9432 1.9232 1.5044 3.6777-2.9352 5.8827-1.8499 2.205 1.0853-0.48173 5.0661 1.9086 5.6848 2.3904 0.61873 2.124-4.1265 4.5953-4.0014 2.4713 0.12512 1.6929 4.8176 4.1371 4.4436 2.4442-0.37397 0.20281-4.6046 2.5131-5.4613 2.3103-0.8567 3.575 3.7362 5.6504 2.4342 2.0754-1.302-1.7532-4.286-0.0033-5.9764 1.7499-1.6904 4.8388 2.0082 6.1866 2e-3 1.3478-2.0049-3.4067-3.2266-2.5198-5.4585 0.88684-2.2318 5.2662-0.0665 5.6534-2.4277 0.38712-2.3612-4.4704-1.6092-4.5999-3.9966s4.7826-2.13 4.1421-4.4392-4.7613 0.28626-5.8848-1.8438c-1.1235-2.13 3.4723-3.8249 1.9149-5.6828-1.5574-1.8578-4.229 2.1326-6.1522 0.62809-1.9232-1.5044 1.5619-4.8587-0.64306-5.944-2.205-1.0853-2.9658 3.6098-5.3561 2.991-2.3904-0.61874-0.61907-5.0523-3.0904-5.1774zm-1.9795 7.1419-0.14127 12.153-12.629 0.14944a13.292 11.543 0 0 1 -0.04611 -0.77429 13.292 11.543 0 0 1 12.816 -11.528zm1.5473 0.0389a13.292 11.543 0 0 1 12.816 11.529 13.292 11.543 0 0 1 -0.04569 0.77387l-12.629-0.14897zm-14.317 13.745 12.629 0.14902 0.14127 12.154a13.292 11.543 0 0 1 -12.816 -11.529 13.292 11.543 0 0 1 0.04611 -0.77387zm27.088 0a13.292 11.543 0 0 1 0.0457 0.77387 13.292 11.543 0 0 1 -12.816 11.529l0.14127-12.154z" fill="#a40" style="paint-order:markers fill stroke"/>
  <path d="m86.152 258.82c-1.1727-2.6043-5.369 1.2206-7.0575-1.083-1.6885-2.3036 3.2216-5.1548 1.0912-7.057s-4.4084 3.2991-6.8878 1.8815c-2.4794-1.4176 0.84679-6.0195-1.8731-6.8905-2.7199-0.87109-2.6854 4.807-5.5269 4.5206-2.8416-0.28651-1.6747-5.8436-4.5137-5.533-2.839 0.31063-0.49837 5.484-3.2108 6.3782-2.7124 0.89414-3.9065-4.6571-6.3737-3.2185-2.4672 1.4386 1.7748 5.2122-0.33944 7.1324-2.1143 1.9202-5.4626-2.6651-7.1314-0.34728-1.6689 2.3179 3.7414 4.0395 2.5908 6.6537-1.1505 2.6142-6.0741-0.21297-6.656 2.5833-0.58191 2.7963 5.0605 2.1686 5.0726 5.0248 0.01214 2.8562-5.6354 2.2765-5.0297 5.0678 0.60564 2.7913 5.5051-0.0773 6.6778 2.527 1.1727 2.6044-4.2226 4.3721-2.5341 6.6757 1.6885 2.3036 4.9978-2.3103 7.1283-0.40812 2.1305 1.9022-2.0797 5.712 0.39966 7.1296 2.4794 1.4176 3.6261-4.1432 6.3458-3.2725 2.7199 0.87108 0.42339 6.0637 3.2658 6.3497 2.8416 0.28649 1.6274-5.2605 4.4664-5.5711 2.839-0.31065 2.8529 5.3675 5.5653 4.4734 2.7124-0.89415-0.65248-5.4674 1.8148-6.906 2.4673-1.4386 4.7891 3.7427 6.9033 1.8225 2.1143-1.9202-2.8194-4.7292-1.1506-7.0471 1.6689-2.3178 5.8971 1.4711 7.0476-1.1431 1.1506-2.6142-4.4992-3.1733-3.9173-5.9696 0.58191-2.7963 5.9858-1.0546 5.9736-3.9109-0.01214-2.8562-5.4009-1.069-6.0066-3.8603-0.60565-2.7913 5.0392-3.3986 3.8665-6.0029zm-8.6314 1.8749-12.983 6.5021-6.8306-12.877a15.342 13.791 62.778 0 1 0.79805 -0.47082 15.342 13.791 62.778 0 1 19.016 6.8462zm0.77613 1.609a15.342 13.791 62.778 0 1 -5.4746 19.457 15.342 13.791 62.778 0 1 -0.8461 0.37639l-6.5136-13.041zm-22.163-7.1744 6.5136 13.041-12.834 6.7922a15.342 13.791 62.778 0 1 5.4744 -19.457 15.342 13.791 62.778 0 1 0.84631 -0.37592zm14.31 27.796a15.342 13.791 62.778 0 1 -0.79783 0.47013 15.342 13.791 62.778 0 1 -19.016 -6.8455l12.984-6.5023z" fill="#520" style="paint-order:markers fill stroke"/>
  <path d="m101.55 229.95c-1.6782-0.69674-1.958 2.9051-3.7445 2.5725-1.7864-0.33258-0.75144-3.794-2.568-3.7478-1.8165 0.0461-0.60723 3.4505-2.3745 3.8733-1.7672 0.42282-2.2293-3.1603-3.87-2.3792-1.6407 0.78105 0.84862 3.3991-0.59387 4.5042-1.4425 1.1051-3.322-1.9802-4.5032-0.59928-1.1812 1.3809 2.1577 2.7602 1.2893 4.3565-0.86832 1.5964-3.8401-0.45767-4.3576 1.2844-0.51747 1.742 3.0934 1.6438 2.9494 3.4554-0.14401 1.8116-3.694 1.144-3.4583 2.9459 0.23574 1.8019 3.4945 0.24319 4.0997 1.9567 0.6052 1.7135-2.9094 2.5475-1.9613 4.0978 0.94821 1.5502 3.2913-1.1991 4.541 0.12009 1.2498 1.3192-1.6216 3.5108-0.12494 4.5414 1.4967 1.0305 2.5191-2.4343 4.1973-1.7375 1.6782 0.69683-0.05369 3.8671 1.7327 4.1997 1.7864 0.33261 1.3113-3.2487 3.1278-3.2949 1.8165-0.0461 1.5236 3.5548 3.2909 3.132 1.7672-0.42283-0.12324-3.5011 1.5173-4.2822 1.6407-0.78105 2.8376 2.6274 4.2802 1.522 1.4425-1.1052-1.5368-3.1484-0.35555-4.5294 1.1812-1.3809 3.661 1.2462 4.5293-0.35022 0.86831-1.5964-2.6841-2.2511-2.1667-3.9931 0.51744-1.742 3.8511-0.35089 3.9951-2.1624 0.14401-1.8116-3.3674-0.96469-3.6032-2.7666-0.23574-1.8019 3.3754-1.887 2.7702-3.6005-0.60519-1.7135-3.4686 0.4887-4.4168-1.0616-0.94821-1.5502 2.3163-3.0969 1.0666-4.4161-1.2498-1.3192-2.9702 1.8573-4.4669 0.8268-1.4967-1.0305 0.85642-3.7714-0.8218-4.4682zm-3.1859 4.6299-3.1883 8.6715-8.7768-2.9956a9.7604 8.7748 19.562 0 1 0.16499 -0.56601 9.7604 8.7748 19.562 0 1 11.8 -5.1099zm1.0608 0.40794a9.7604 8.7748 19.562 0 1 5.9364 11.408 9.7604 8.7748 19.562 0 1 -0.22842 0.54315l-8.7009-3.2094zm-13.402 6.3288 8.7009 3.2095-2.9929 8.7412a9.7604 8.7748 19.562 0 1 -5.9367 -11.408 9.7604 8.7748 19.562 0 1 0.2287 -0.54304zm18.744 6.6549a9.7604 8.7748 19.562 0 1 -0.16517 0.56562 9.7604 8.7748 19.562 0 1 -11.8 5.1103l3.1884-8.6718z" fill="#d45500" style="paint-order:markers fill stroke"/>
 </g>
</svg>
